# xmcd CD database file
#
# Track frame offsets:
#	150
#	22308
#	36756
#	53573
#	79332
#	93547
#	108603
#	129064
#	145203
#	165586
#	186325
#	203479
#	227661
#	244061
#	261564
#	277760
#	302735
#	322599
#	337189
#
# Disc length: 4770 seconds
#
# Revision: 0
# Processed by: cddbd v1.4PL0 Copyright (c) Steve Scherf et al.
# Submitted via: CDex 1.50beta9
#
DISCID=0812a013
DTITLE=Cesaria Evora - Ultimate Collection
DYEAR=1900
DGENRE=Jazz
TTITLE0=Besame Mucho (Consuelo Velasquez)
TTITLE1=Nutridinha
TTITLE2=Sodade (A. Cabral/Moraisa Cabral)
TTITLE3=Luiza (B. Leza)
TTITLE4=Sabine Largam (Gregorio Goncalves)
TTITLE5=Tiempo Y Silencio (With Pedro Guerra)
TTITLE6=Miss Perfumado (B. Leza)
TTITLE7=Cinturao Tem Mele (Gregorio Goncalves)
TTITLE8=Dor Di Amor
TTITLE9=Papa Joachim Paris (Traditionnel/Paulino Viera)
TTITLE10=Petit Pays (Nando Da Cruz)
TTITLE11=Cize (Morgadinho)
TTITLE12=Mar Azul (B. Leza)
TTITLE13=Nha Cancera Ka Tem Medida (Pedro Rodrigues)
TTITLE14=Sangue De Beirona (Traditionnel/Rufino Almeida)
TTITLE15=Crepuscular Solidao (With Bonnie Raitt)
TTITLE16=Angola (Ramiro Mendes)
TTITLE17=Partida (Ney Fernandes)
TTITLE18=Cabo Verde Terra Estimada (Jorge Monteiro)
EXTD=
EXTT0=
EXTT1=
EXTT2=
EXTT3=
EXTT4=
EXTT5=
EXTT6=
EXTT7=
EXTT8=
EXTT9=
EXTT10=
EXTT11=
EXTT12=
EXTT13=
EXTT14=
EXTT15=
EXTT16=
EXTT17=
EXTT18=
PLAYORDER=
